<?xml version="1.0" encoding="iso-8859-1"?>
<!-- Generator: Adobe Illustrator 19.0.0, SVG Export Plug-In . SVG Version: 6.00 Build 0)  -->
<svg version="1.1" id="Layer_1" xmlns="http://www.w3.org/2000/svg" xmlns:xlink="http://www.w3.org/1999/xlink" x="0px" y="0px"
	 viewBox="0 0 512 512" style="enable-background:new 0 0 512 512;" xml:space="preserve">
<circle style="fill:#FFCC4D;" cx="256" cy="256" r="248.163"/>
<path style="opacity:0.1;enable-background:new    ;" d="M39.706,256c0-131.702,102.6-239.423,232.229-247.64
	c-5.27-0.334-10.58-0.523-15.935-0.523C118.943,7.837,7.837,118.943,7.837,256S118.943,504.163,256,504.163
	c5.355,0,10.664-0.189,15.935-0.523C142.306,495.423,39.706,387.702,39.706,256z"/>
<path style="fill:#EA3939;" d="M256,422.151c-72.777,0-134.348-54.429-143.216-126.606c-0.255-2.077,0.392-4.165,1.779-5.732
	c1.387-1.567,3.379-2.465,5.472-2.465h271.927c2.094,0,4.086,0.898,5.473,2.465c1.386,1.567,2.033,3.655,1.779,5.732
	C390.347,367.721,328.778,422.151,256,422.151z"/>
<g style="opacity:0.1;">
	<path style="opacity:0.15;enable-background:new    ;" d="M183.942,402.842c2.352-5.954,5.928-11.289,10.411-15.704
		c-26.363-22.704-44.543-54.846-49.058-91.594c-0.255-2.077,0.392-4.165,1.779-5.732c1.387-1.567,3.379-2.465,5.472-2.465h-32.511
		c-2.093,0-4.086,0.898-5.472,2.465c-1.388,1.567-2.034,3.655-1.779,5.732c5.868,47.759,34.815,87.74,74.811,109.331
		C186.368,404.214,185.148,403.539,183.942,402.842z"/>
</g>
<path style="fill:#FFFFFF;" d="M391.963,287.347H120.036c-2.093,0-4.086,0.898-5.472,2.465c-1.388,1.567-2.034,3.655-1.779,5.732
	c1.393,11.337,4.088,22.234,7.92,32.553h270.592c3.833-10.318,6.527-21.217,7.92-32.553c0.254-2.077-0.394-4.165-1.779-5.732
	C396.049,288.245,394.057,287.347,391.963,287.347z"/>
<path style="fill:#F16A5D;" d="M226.22,374.073c-19.21,0-35.625,11.923-42.279,28.768c21.302,12.308,45.959,19.309,72.058,19.309
	c26.098,0,50.756-7.001,72.058-19.309c-6.653-16.845-23.068-28.768-42.279-28.768c-11.395,0-21.802,4.203-29.78,11.13
	C248.022,378.276,237.615,374.073,226.22,374.073z"/>
<g style="opacity:0.1;">
	<path d="M249.24,380.346c-6.751-3.98-14.615-6.273-23.019-6.273c-19.21,0-35.625,11.923-42.279,28.768
		c8.401,4.855,17.33,8.867,26.657,11.967C219.274,399.455,232.865,387.256,249.24,380.346z"/>
</g>
<path d="M163.958,201.347v-27.258c0-10.162-8.238-18.399-18.399-18.399c-10.163,0-18.4,8.237-18.4,18.399v27.258
	c0,10.162,8.238,18.4,18.4,18.4C155.72,219.746,163.958,211.508,163.958,201.347z"/>
<path d="M384.841,201.347v-27.258c0-10.162-8.238-18.399-18.4-18.399c-10.162,0-18.399,8.237-18.399,18.399v27.258
	c0,10.162,8.238,18.4,18.399,18.4C376.603,219.746,384.841,211.508,384.841,201.347z"/>
<path d="M449.032,87.845c-2.845-3.262-7.796-3.601-11.057-0.757c-3.262,2.844-3.601,7.794-0.758,11.056
	c38.117,43.717,59.109,99.778,59.109,157.856c0,64.193-24.998,124.545-70.39,169.937c-45.392,45.391-105.744,70.39-169.937,70.39
	s-124.545-24.998-169.937-70.39C40.672,380.544,15.673,320.193,15.673,256s24.998-124.545,70.39-169.937
	c45.392-45.39,105.743-70.39,169.937-70.39c59.558,0,116.696,21.946,160.887,61.796c3.211,2.898,8.166,2.644,11.069-0.572
	c2.898-3.214,2.642-8.169-0.573-11.068C380.308,23.379,319.443,0,256,0C187.62,0,123.332,26.628,74.981,74.981S0,187.62,0,256
	s26.628,132.668,74.981,181.019S187.62,512,256,512s132.668-26.628,181.019-74.981S512,324.38,512,256
	C512,194.136,489.638,134.417,449.032,87.845z"/>
<path d="M238.237,166.661c-4.328,0-7.837,3.509-7.837,7.837v58.514c0,10.082,8.203,18.286,18.286,18.286h25.078
	c4.329,0,7.837-3.509,7.837-7.837c0-4.328-3.508-7.837-7.837-7.837h-25.078c-1.416,0-2.612-1.196-2.612-2.612v-58.514
	C246.073,170.17,242.565,166.661,238.237,166.661z"/>
<path d="M298.809,415.883c1.173,3.158,4.165,5.11,7.347,5.11c0.906,0,1.83-0.159,2.728-0.493
	c25.81-9.591,48.587-26.043,65.867-47.578c10.11-12.599,18.076-26.655,23.693-41.624c0.155-0.343,0.282-0.697,0.386-1.064
	c3.978-10.844,6.741-22.151,8.164-33.737c0.527-4.301-0.817-8.628-3.691-11.879c-2.873-3.246-7.007-5.107-11.341-5.107H195.396
	c-4.328,0-7.837,3.509-7.837,7.837s3.509,7.837,7.837,7.837h195.967c-1.098,8.625-2.995,17.01-5.618,25.078H126.277
	c-2.626-8.04-4.538-16.422-5.639-25.078h45.501c4.328,0,7.837-3.509,7.837-7.837s-3.509-7.837-7.837-7.837h-46.103
	c-4.335,0-8.469,1.862-11.341,5.11c-2.872,3.246-4.217,7.578-3.688,11.882c9.35,76.1,74.264,133.487,150.994,133.487
	c8.11,0,16.263-0.651,24.233-1.935c4.274-0.689,7.18-4.709,6.491-8.983c-0.688-4.272-4.707-7.175-8.983-6.491
	c-7.149,1.153-14.465,1.736-21.742,1.736c-22.071,0-43.049-5.301-61.647-14.745c6.785-10.898,18.663-17.66,31.867-17.66
	c9.05,0,17.801,3.272,24.641,9.211c2.948,2.56,7.329,2.559,10.278,0c6.84-5.94,15.591-9.211,24.641-9.211
	c13.208,0,25.089,6.766,31.872,17.668c-4.587,2.318-9.328,4.408-14.226,6.229C299.368,407.315,297.302,411.826,298.809,415.883z
	 M285.78,366.237c-10.657,0-21.02,3.199-29.78,9.109c-8.759-5.91-19.123-9.109-29.78-9.109c-18.881,0-35.872,9.741-45.435,25.435
	c-20.711-13.706-37.535-32.941-48.278-55.737h247.035c-10.605,22.612-27.271,41.922-48.305,55.772
	C321.677,375.993,304.677,366.237,285.78,366.237z"/>
<g>
</g>
<g>
</g>
<g>
</g>
<g>
</g>
<g>
</g>
<g>
</g>
<g>
</g>
<g>
</g>
<g>
</g>
<g>
</g>
<g>
</g>
<g>
</g>
<g>
</g>
<g>
</g>
<g>
</g>
</svg>
